<svg width="470" height="118" viewBox="0 0 470 118" fill="none" xmlns="http://www.w3.org/2000/svg">
<path d="M17.346 81.78C15.1247 81.78 13.2627 81.29 11.76 80.31C10.2574 79.33 9.50602 78.0233 9.50602 76.39C9.50602 69.9873 15.3534 62.9967 27.048 55.418C35.6067 49.7993 44.4594 45.4547 53.606 42.384C53.8674 42.384 54.0634 42.3513 54.194 42.286C54.39 42.1553 54.488 42.188 54.488 42.384C54.488 42.7107 53.998 43.1353 53.018 43.658C25.4474 58.2927 11.662 69.2687 11.662 76.586C11.662 79.2646 12.9687 80.604 15.582 80.604C19.3714 80.604 23.8467 78.84 29.008 75.312C33.4507 72.2413 37.6647 68.844 41.65 65.12C45.6354 61.3307 49.4247 57.2147 53.018 52.772C60.2047 43.6907 63.798 36.3733 63.798 30.82C63.798 25.7893 60.2047 23.274 53.018 23.274C47.334 23.274 39.7554 25.2993 30.282 29.35C26.8194 30.8527 23.4547 32.5513 20.188 34.446C16.9214 36.2753 13.8834 38.17 11.074 40.13C5.25935 44.246 2.35202 47.48 2.35202 49.832C2.35202 51.204 3.13602 52.38 4.70402 53.36C4.70402 53.36 4.70402 53.3927 4.70402 53.458C4.76935 53.458 4.80202 53.4907 4.80202 53.556C4.80202 53.752 4.54069 53.85 4.01802 53.85C3.49535 53.85 2.84202 53.2947 2.05802 52.184C1.27402 51.0733 0.882019 50.0607 0.882019 49.146C0.882019 46.0753 3.98535 42.3186 10.192 37.876C16.268 33.564 23.422 29.8073 31.654 26.606C39.69 23.4047 46.2887 21.804 51.45 21.804C62.6874 21.804 68.306 25.5607 68.306 33.074C68.306 37.6473 66.4114 42.8087 62.622 48.558C60.7274 51.4327 58.6367 54.2093 56.35 56.888C54.1287 59.5667 51.6787 62.1146 49 64.532C46.3867 66.9493 43.6754 69.1707 40.866 71.196C38.0567 73.2213 35.1494 75.0833 32.144 76.782C26.264 80.114 21.3314 81.78 17.346 81.78Z" fill="#262626"/>
<path d="M72.5422 71C67.2502 71 64.6042 68.2233 64.6042 62.67C64.6042 60.4487 65.0942 58.0966 66.0742 55.614C67.1196 53.066 68.3935 51.008 69.8962 49.44C69.1776 48.1987 68.8182 46.6633 68.8182 44.834C68.8182 42.9393 69.6022 41.2407 71.1702 39.738C72.7382 38.17 74.6656 37.386 76.9522 37.386C81.1989 37.386 84.0735 39.6073 85.5762 44.05C88.6469 44.638 90.1822 45.3567 90.1822 46.206C90.1822 47.186 89.8556 47.676 89.2022 47.676L86.7522 47.284C86.8176 47.9373 86.8502 48.5253 86.8502 49.048C86.9156 49.5707 86.9482 50.028 86.9482 50.42C86.9482 55.7773 85.5762 60.5793 82.8322 64.826C80.0882 68.942 76.6582 71 72.5422 71ZM71.2682 48.558C75.7109 45.226 78.7815 43.56 80.4802 43.56H80.7742C79.8596 41.2733 78.1609 40.13 75.6782 40.13C74.5676 40.13 73.6529 40.522 72.9342 41.306C72.2156 42.0247 71.6929 42.9066 71.3662 43.952C71.0396 44.9973 70.8762 45.9447 70.8762 46.794C70.8762 47.578 71.0069 48.166 71.2682 48.558ZM72.4442 69.824C75.1229 69.824 77.6382 67.7333 79.9902 63.552C82.3422 59.3053 83.5182 55.2547 83.5182 51.4C83.5182 49.7013 83.2242 48.3293 82.6362 47.284C80.2189 47.676 77.5729 49.2113 74.6982 51.89C75.3516 52.3473 75.8742 52.576 76.2662 52.576C76.6582 52.5107 76.8869 52.478 76.9522 52.478C77.2789 52.478 77.4422 52.6413 77.4422 52.968C77.4422 53.4907 77.0176 53.752 76.1682 53.752C75.4496 53.752 74.6329 53.5233 73.7182 53.066C70.2555 57.1167 68.5242 60.9386 68.5242 64.532C68.5242 68.06 69.8309 69.824 72.4442 69.824Z" fill="#262626"/>
<path d="M75.8153 114.708C71.5033 114.708 69.3473 112.585 69.3473 108.338C69.3473 103.242 73.0386 96.5453 80.4213 88.248C88.1306 79.5587 96.5259 72.6333 105.607 67.472C105.673 67.472 105.705 67.5047 105.705 67.57C105.705 67.8967 105.346 68.452 104.627 69.236C82.5446 87.5947 71.5033 100.857 71.5033 109.024C71.5033 112.16 72.7446 113.728 75.2273 113.728C79.5393 113.728 84.6679 109.612 90.6133 101.38C93.7493 97.068 96.5913 92.5927 99.1393 87.954C101.687 83.3153 103.974 78.4806 105.999 73.45C108.155 68.2233 109.756 63.6173 110.801 59.632C111.912 55.6467 112.467 52.0533 112.467 48.852C112.467 46.5653 112.075 44.9973 111.291 44.148C102.602 53.2293 96.5259 60.8733 93.0633 67.08C92.0179 69.824 91.0379 71.196 90.1233 71.196C88.1633 71.196 87.1833 70.608 87.1833 69.432C87.1833 69.04 87.5099 67.8967 88.1633 66.002C88.8819 64.042 89.8619 61.3307 91.1033 57.868L93.8473 50.322C94.8273 47.6433 95.3173 45.03 95.3173 42.482V42.09C95.3173 41.306 95.2193 40.8813 95.0233 40.816C94.8926 40.6853 94.4679 40.62 93.7493 40.62C93.0959 40.62 92.7693 40.4567 92.7693 40.13C92.7693 39.542 93.2919 39.248 94.3373 39.248C98.5186 39.248 100.609 40.816 100.609 43.952C100.609 45.4546 98.6493 51.008 94.7293 60.612C96.9506 57.476 100.25 53.5887 104.627 48.95C109.07 44.246 111.814 41.894 112.859 41.894C112.859 42.4167 112.598 42.9393 112.075 43.462C115.015 43.7233 116.583 44.3767 116.779 45.422C116.91 46.2713 117.008 47.0553 117.073 47.774C117.139 48.4927 117.171 49.1133 117.171 49.636C117.171 55.908 115.015 64.2053 110.703 74.528C105.934 85.7653 100.152 95.2713 93.3573 103.046C86.5626 110.821 80.7153 114.708 75.8153 114.708Z" fill="#262626"/>
<path d="M123.737 72.078C118.183 72.078 115.407 69.4973 115.407 64.336C115.407 60.416 117.367 55.614 121.286 49.93C125.272 44.1807 129.094 41.306 132.753 41.306C134.059 41.306 135.399 41.796 136.771 42.776C138.208 43.6907 138.926 44.7033 138.926 45.814C138.926 48.8847 137.881 50.42 135.79 50.42C135.268 50.42 134.941 50.2567 134.811 49.93C135.594 48.0353 135.986 46.5327 135.986 45.422C135.986 44.3767 135.725 43.854 135.202 43.854C134.484 43.854 133.177 44.6053 131.283 46.108C129.649 47.4146 128.114 48.9173 126.676 50.616C125.304 52.3147 124.063 54.0786 122.952 55.908C120.601 59.8933 119.424 63.2253 119.424 65.904C119.424 68.5173 120.437 69.824 122.463 69.824C124.814 69.824 127.395 68.6153 130.204 66.198C131.119 65.3486 132.099 64.4013 133.145 63.356C134.19 62.2453 135.333 61.0367 136.574 59.73C138.992 57.1167 140.266 55.81 140.396 55.81C140.788 55.81 140.984 55.9733 140.984 56.3C140.984 56.5613 140.919 56.8227 140.788 57.084C133.928 67.08 128.245 72.078 123.737 72.078Z" fill="#262626"/>
<path d="M147.471 72.078C141.918 72.078 139.141 69.4973 139.141 64.336C139.141 60.3507 141.101 55.516 145.021 49.832C149.072 44.148 152.926 41.306 156.585 41.306C158.153 41.306 159.525 41.8287 160.701 42.874C161.942 43.854 162.563 45.0627 162.563 46.5C162.563 48.9173 161.028 51.3673 157.957 53.85C154.952 56.2673 151.979 57.476 149.039 57.476C148.451 57.476 148.157 57.3453 148.157 57.084L148.451 56.594C155.964 54.242 159.721 50.3873 159.721 45.03C159.721 44.246 159.46 43.854 158.937 43.854C158.218 43.854 156.912 44.6053 155.017 46.108C153.384 47.4146 151.848 48.9173 150.411 50.616C149.039 52.3147 147.798 54.0786 146.687 55.908C144.335 59.8933 143.159 63.2253 143.159 65.904C143.159 68.5173 144.172 69.824 146.197 69.824C148.549 69.824 151.13 68.6153 153.939 66.198C154.854 65.3486 155.834 64.4013 156.879 63.356C157.924 62.2453 159.068 61.0367 160.309 59.73C162.726 57.1167 164 55.81 164.131 55.81C164.523 55.81 164.719 55.9733 164.719 56.3C164.719 56.5613 164.654 56.8227 164.523 57.084C157.663 67.08 151.979 72.078 147.471 72.078Z" fill="#262626"/>
<path d="M170.932 33.27C170.736 33.27 170.638 33.1393 170.638 32.878C170.638 32.6167 170.638 32.4207 170.638 32.29C170.965 31.7673 171.324 31.2447 171.716 30.722C172.108 30.1993 172.435 29.7093 172.696 29.252C172.957 28.7293 173.284 27.9453 173.676 26.9C174.068 25.8547 174.264 24.8747 174.264 23.96C174.264 22.98 173.97 22.2613 173.382 21.804C173.317 21.6733 173.219 21.5427 173.088 21.412C172.957 21.2813 172.892 21.1507 172.892 21.02C172.892 20.5627 173.349 20.334 174.264 20.334C174.591 20.334 175.015 20.3667 175.538 20.432C176.061 20.4973 176.485 20.5953 176.812 20.726C177.988 21.1833 178.576 21.8366 178.576 22.686C178.576 22.882 178.511 23.176 178.38 23.568C177.661 25.0053 176.714 26.6387 175.538 28.468C174.362 30.232 173.121 31.6693 171.814 32.78C171.422 33.1067 171.128 33.27 170.932 33.27Z" fill="#262626"/>
<path d="M179.105 73.254C177.472 73.254 176.034 72.96 174.793 72.372C173.617 71.784 173.029 71.2287 173.029 70.706C180.542 69.138 184.299 67.2433 184.299 65.022C184.299 64.5647 183.417 63.552 181.653 61.984C178.256 58.9787 176.557 55.614 176.557 51.89C176.557 49.2113 178.223 46.5653 181.555 43.952C185.018 41.208 188.154 39.836 190.963 39.836C191.42 39.836 192.335 40.522 193.707 41.894C195.079 43.266 195.765 44.148 195.765 44.54C195.765 44.8666 195.602 45.03 195.275 45.03C194.556 44.8993 193.968 44.8013 193.511 44.736C193.054 44.6053 192.727 44.54 192.531 44.54C189.591 44.54 186.553 45.618 183.417 47.774C180.346 49.93 178.811 52.1187 178.811 54.34C178.811 54.732 180.346 56.7247 183.417 60.318C186.488 63.7807 188.023 66.1653 188.023 67.472C188.023 68.7787 187.108 70.0527 185.279 71.294C184.299 71.9473 183.254 72.4373 182.143 72.764C181.098 73.0907 180.085 73.254 179.105 73.254Z" fill="#262626"/>
<path d="M242.608 43.096C242.608 46.936 241.349 50.0294 238.832 52.376C236.315 54.7227 232.539 55.896 227.504 55.896H218.48V74.968H214V30.232H227.504C232.496 30.232 236.251 31.4054 238.768 33.752C241.328 36.0987 242.608 39.2134 242.608 43.096ZM227.504 52.056C234.501 52.056 238 49.0694 238 43.096C238 40.1094 237.168 37.848 235.504 36.312C233.84 34.776 231.173 34.008 227.504 34.008H218.48V52.056H227.504Z" fill="#262626"/>
<path d="M265.421 75.48C262.136 75.48 259.17 74.7547 256.525 73.304C253.922 71.8107 251.853 69.72 250.317 67.032C248.824 64.3014 248.077 61.1227 248.077 57.496C248.077 53.8694 248.845 50.712 250.381 48.024C251.917 45.2934 254.008 43.2027 256.653 41.752C259.298 40.2587 262.264 39.512 265.549 39.512C268.834 39.512 271.8 40.2587 274.445 41.752C277.133 43.2027 279.224 45.2934 280.717 48.024C282.253 50.712 283.021 53.8694 283.021 57.496C283.021 61.08 282.253 64.2374 280.717 66.968C279.181 69.6987 277.069 71.8107 274.381 73.304C271.693 74.7547 268.706 75.48 265.421 75.48ZM265.421 71.576C267.725 71.576 269.858 71.064 271.821 70.04C273.784 68.9734 275.362 67.3947 276.557 65.304C277.794 63.1707 278.413 60.568 278.413 57.496C278.413 54.424 277.816 51.8427 276.621 49.752C275.426 47.6187 273.848 46.04 271.885 45.016C269.922 43.9494 267.789 43.416 265.485 43.416C263.181 43.416 261.048 43.9494 259.085 45.016C257.122 46.04 255.544 47.6187 254.349 49.752C253.197 51.8427 252.621 54.424 252.621 57.496C252.621 60.568 253.197 63.1707 254.349 65.304C255.544 67.3947 257.101 68.9734 259.021 70.04C260.984 71.064 263.117 71.576 265.421 71.576Z" fill="#262626"/>
<path d="M295.667 46.232C296.649 44.056 298.142 42.3707 300.147 41.176C302.195 39.9814 304.691 39.384 307.635 39.384V44.056H306.42C303.177 44.056 300.574 44.9307 298.611 46.68C296.649 48.4294 295.667 51.352 295.667 55.448V74.968H291.188V40.024H295.667V46.232Z" fill="#262626"/>
<path d="M320.199 43.8V65.496C320.199 67.6294 320.604 69.1014 321.415 69.912C322.226 70.7227 323.655 71.128 325.703 71.128H329.799V74.968H324.999C321.842 74.968 319.495 74.2427 317.959 72.792C316.423 71.2987 315.655 68.8667 315.655 65.496V43.8H310.791V40.024H315.655V31.256H320.199V40.024H329.799V43.8H320.199Z" fill="#262626"/>
<path d="M350.948 43.8H342.82V74.968H338.34V43.8H333.475V40.024H338.34V37.592C338.34 33.7947 339.3 31 341.22 29.208C343.182 27.416 346.339 26.52 350.691 26.52V30.36C347.79 30.36 345.742 30.9147 344.548 32.024C343.396 33.1334 342.82 34.9894 342.82 37.592V40.024H350.948V43.8Z" fill="#262626"/>
<path d="M373.296 75.48C370.011 75.48 367.045 74.7547 364.4 73.304C361.797 71.8107 359.728 69.72 358.192 67.032C356.699 64.3014 355.952 61.1227 355.952 57.496C355.952 53.8694 356.72 50.712 358.256 48.024C359.792 45.2934 361.883 43.2027 364.528 41.752C367.173 40.2587 370.139 39.512 373.424 39.512C376.709 39.512 379.675 40.2587 382.32 41.752C385.008 43.2027 387.099 45.2934 388.592 48.024C390.128 50.712 390.896 53.8694 390.896 57.496C390.896 61.08 390.128 64.2374 388.592 66.968C387.056 69.6987 384.944 71.8107 382.256 73.304C379.568 74.7547 376.581 75.48 373.296 75.48ZM373.296 71.576C375.6 71.576 377.733 71.064 379.696 70.04C381.659 68.9734 383.237 67.3947 384.432 65.304C385.669 63.1707 386.288 60.568 386.288 57.496C386.288 54.424 385.691 51.8427 384.496 49.752C383.301 47.6187 381.723 46.04 379.76 45.016C377.797 43.9494 375.664 43.416 373.36 43.416C371.056 43.416 368.923 43.9494 366.96 45.016C364.997 46.04 363.419 47.6187 362.224 49.752C361.072 51.8427 360.496 54.424 360.496 57.496C360.496 60.568 361.072 63.1707 362.224 65.304C363.419 67.3947 364.976 68.9734 366.896 70.04C368.859 71.064 370.992 71.576 373.296 71.576Z" fill="#262626"/>
<path d="M403.543 27.608V74.968H399.062V27.608H403.543Z" fill="#262626"/>
<path d="M415.928 33.432C415.032 33.432 414.264 33.112 413.624 32.472C412.984 31.832 412.663 31.0427 412.663 30.104C412.663 29.1654 412.984 28.3974 413.624 27.8C414.264 27.16 415.032 26.84 415.928 26.84C416.824 26.84 417.592 27.16 418.232 27.8C418.872 28.3974 419.191 29.1654 419.191 30.104C419.191 31.0427 418.872 31.832 418.232 32.472C417.592 33.112 416.824 33.432 415.928 33.432ZM418.168 40.024V74.968H413.688V40.024H418.168Z" fill="#262626"/>
<path d="M443.609 75.48C440.323 75.48 437.358 74.7547 434.713 73.304C432.11 71.8107 430.04 69.72 428.505 67.032C427.011 64.3014 426.265 61.1227 426.265 57.496C426.265 53.8694 427.033 50.712 428.569 48.024C430.105 45.2934 432.195 43.2027 434.84 41.752C437.486 40.2587 440.451 39.512 443.737 39.512C447.022 39.512 449.987 40.2587 452.633 41.752C455.321 43.2027 457.411 45.2934 458.905 48.024C460.441 50.712 461.209 53.8694 461.209 57.496C461.209 61.08 460.441 64.2374 458.905 66.968C457.369 69.6987 455.257 71.8107 452.569 73.304C449.881 74.7547 446.894 75.48 443.609 75.48ZM443.609 71.576C445.913 71.576 448.046 71.064 450.009 70.04C451.971 68.9734 453.55 67.3947 454.745 65.304C455.982 63.1707 456.601 60.568 456.601 57.496C456.601 54.424 456.003 51.8427 454.809 49.752C453.614 47.6187 452.035 46.04 450.073 45.016C448.11 43.9494 445.977 43.416 443.673 43.416C441.368 43.416 439.235 43.9494 437.273 45.016C435.31 46.04 433.731 47.6187 432.536 49.752C431.384 51.8427 430.809 54.424 430.809 57.496C430.809 60.568 431.384 63.1707 432.536 65.304C433.731 67.3947 435.289 68.9734 437.209 70.04C439.171 71.064 441.305 71.576 443.609 71.576Z" fill="#262626"/>
</svg>
